<?xml version="1.0" encoding="UTF-8" standalone="no"?>
<!-- Created with Inkscape (http://www.inkscape.org/) -->

<svg
   xmlns:dc="http://purl.org/dc/elements/1.1/"
   xmlns:cc="http://creativecommons.org/ns#"
   xmlns:rdf="http://www.w3.org/1999/02/22-rdf-syntax-ns#"
   xmlns:svg="http://www.w3.org/2000/svg"
   xmlns="http://www.w3.org/2000/svg"
   xmlns:sodipodi="http://sodipodi.sourceforge.net/DTD/sodipodi-0.dtd"
   xmlns:inkscape="http://www.inkscape.org/namespaces/inkscape"
   width="3.175mm"
   height="6.3444633mm"
   viewBox="0 0 3.175 6.3444633"
   version="1.1"
   id="svg8"
   sodipodi:docname="facebook.svg"
   inkscape:version="0.92.0 r15299">
  <defs
     id="defs2" />
  <sodipodi:namedview
     id="base"
     pagecolor="#ffffff"
     bordercolor="#666666"
     borderopacity="1.0"
     inkscape:pageopacity="0.0"
     inkscape:pageshadow="2"
     inkscape:zoom="1.979899"
     inkscape:cx="-89.16192"
     inkscape:cy="75.847336"
     inkscape:document-units="mm"
     inkscape:current-layer="layer1"
     showgrid="false"
     inkscape:window-width="1920"
     inkscape:window-height="1018"
     inkscape:window-x="-8"
     inkscape:window-y="-8"
     inkscape:window-maximized="1"
     fit-margin-top="0"
     fit-margin-left="0"
     fit-margin-right="0"
     fit-margin-bottom="0" />
  <metadata
     id="metadata5">
    <rdf:RDF>
      <cc:Work
         rdf:about="">
        <dc:format>image/svg+xml</dc:format>
        <dc:type
           rdf:resource="http://purl.org/dc/dcmitype/StillImage" />
        <dc:title></dc:title>
      </cc:Work>
    </rdf:RDF>
  </metadata>
  <g
     inkscape:label="Layer 1"
     inkscape:groupmode="layer"
     id="layer1"
     transform="translate(-149.95432,-252.27014)">
    <path
       style="fill:#b38f5f;stroke-width:0.35277778"
       d="m 150.65988,257.0271 c 0,-0.87313 -0.15875,-1.5875 -0.35278,-1.5875 -0.19403,0 -0.35278,-0.23813 -0.35278,-0.52917 0,-0.29104 0.15875,-0.52916 0.35278,-0.52916 0.19403,0 0.35278,-0.28575 0.35278,-0.635 0,-0.34925 0.1905,-0.8255 0.42333,-1.05834 0.60863,-0.60863 2.04611,-0.53428 2.04611,0.10584 0,0.29104 -0.23813,0.52916 -0.52917,0.52916 -0.29104,0 -0.52916,0.23813 -0.52916,0.52917 0,0.29104 0.23812,0.52917 0.52916,0.52917 0.29104,0 0.52917,0.23812 0.52917,0.52916 0,0.29104 -0.23813,0.52917 -0.52917,0.52917 -0.39197,0 -0.52916,0.41157 -0.52916,1.5875 0,1.35231 -0.10453,1.5875 -0.70556,1.5875 -0.60103,0 -0.70555,-0.23519 -0.70555,-1.5875 z"
       id="path3791"
       inkscape:connector-curvature="0" />
  </g>
</svg>
