<?xml version="1.0" encoding="UTF-8" standalone="no"?>
<svg
   xmlns:dc="http://purl.org/dc/elements/1.1/"
   xmlns:cc="http://creativecommons.org/ns#"
   xmlns:rdf="http://www.w3.org/1999/02/22-rdf-syntax-ns#"
   xmlns:svg="http://www.w3.org/2000/svg"
   xmlns="http://www.w3.org/2000/svg"
   id="svg8"
   version="1.1"
   viewBox="0 0 8.4667196 5.2532587"
   height="5.2532587mm"
   width="8.4667196mm">
  <defs
     id="defs2" />
  <metadata
     id="metadata5">
    <rdf:RDF>
      <cc:Work
         rdf:about="">
        <dc:format>image/svg+xml</dc:format>
        <dc:type
           rdf:resource="http://purl.org/dc/dcmitype/StillImage" />
        <dc:title></dc:title>
      </cc:Work>
    </rdf:RDF>
  </metadata>
  <g
     transform="translate(-151.45116,-215.28079)"
     id="layer1">
    <path
       id="path3778"
       d="m 152.31707,219.66814 c -0.47625,-0.47625 -0.86591,-1.27722 -0.86591,-1.77993 0,-1.78486 2.39791,-3.23895 3.83756,-2.32709 0.72569,0.45964 0.12107,1.12541 -0.80986,0.89176 -0.86487,-0.21707 -1.96937,0.58792 -1.96937,1.43533 0,1.30642 1.99534,2.05467 2.82223,1.05834 0.36691,-0.44211 0.31597,-0.52917 -0.30959,-0.52917 -0.43037,0 -0.74875,-0.22501 -0.74875,-0.52917 0,-0.36957 0.37238,-0.52916 1.23472,-0.52916 1.07201,0 1.23473,0.11285 1.23473,0.85634 0,1.03125 -1.50438,2.31866 -2.70945,2.31866 -0.46772,0 -1.24006,-0.38966 -1.71631,-0.86591 z m 5.73891,-1.25073 c -0.58985,-0.69268 -0.59153,-0.77205 -0.0283,-1.33523 0.4335,-0.4335 0.63906,-0.47792 0.74472,-0.16096 0.0803,0.24081 0.37084,0.43783 0.64571,0.43783 0.27487,0 0.49977,0.15875 0.49977,0.35277 0,0.19403 -0.22649,0.35278 -0.5033,0.35278 -0.27682,0 -0.55463,0.24509 -0.61736,0.54463 -0.0933,0.44535 -0.22839,0.41038 -0.74119,-0.19182 z"
       style="fill:#b49061;stroke-width:0.35277775" />
  </g>
</svg>
