<?xml version="1.0" encoding="UTF-8" standalone="no"?>
<!-- Created with Inkscape (http://www.inkscape.org/) -->

<svg
   xmlns:dc="http://purl.org/dc/elements/1.1/"
   xmlns:cc="http://creativecommons.org/ns#"
   xmlns:rdf="http://www.w3.org/1999/02/22-rdf-syntax-ns#"
   xmlns:svg="http://www.w3.org/2000/svg"
   xmlns="http://www.w3.org/2000/svg"
   xmlns:sodipodi="http://sodipodi.sourceforge.net/DTD/sodipodi-0.dtd"
   xmlns:inkscape="http://www.inkscape.org/namespaces/inkscape"
   width="6.2829351mm"
   height="5.99722mm"
   viewBox="0 0 6.2829351 5.99722"
   version="1.1"
   id="svg8"
   sodipodi:docname="shopping-cart.svg"
   inkscape:version="0.92.0 r15299">
  <defs
     id="defs2" />
  <sodipodi:namedview
     id="base"
     pagecolor="#ffffff"
     bordercolor="#666666"
     borderopacity="1.0"
     inkscape:pageopacity="0.0"
     inkscape:pageshadow="2"
     inkscape:zoom="0.98994949"
     inkscape:cx="-233.53879"
     inkscape:cy="-57.373942"
     inkscape:document-units="mm"
     inkscape:current-layer="layer1"
     showgrid="false"
     inkscape:window-width="1920"
     inkscape:window-height="1018"
     inkscape:window-x="-8"
     inkscape:window-y="-8"
     inkscape:window-maximized="1"
     fit-margin-top="0"
     fit-margin-left="0"
     fit-margin-right="0"
     fit-margin-bottom="0" />
  <metadata
     id="metadata5">
    <rdf:RDF>
      <cc:Work
         rdf:about="">
        <dc:format>image/svg+xml</dc:format>
        <dc:type
           rdf:resource="http://purl.org/dc/dcmitype/StillImage" />
        <dc:title></dc:title>
      </cc:Work>
    </rdf:RDF>
  </metadata>
  <g
     inkscape:label="Layer 1"
     inkscape:groupmode="layer"
     id="layer1"
     transform="translate(-44.666245,-107.98179)">
    <path
       style="fill:#bc9b6b;stroke-width:0.35277778"
       d="m 46.234748,113.5955 c -0.363545,-0.58823 0.454098,-1.26278 0.940759,-0.77611 0.407079,0.40707 0.152301,1.15962 -0.392595,1.15962 -0.171126,0 -0.4178,-0.17258 -0.548164,-0.38351 z m 2.822222,0 c -0.363545,-0.58823 0.454098,-1.26278 0.940759,-0.77611 0.407079,0.40707 0.152301,1.15962 -0.392595,1.15962 -0.171126,0 -0.4178,-0.17258 -0.548164,-0.38351 z m -3.11826,-1.9384 c -0.117772,-0.30691 -0.214132,-1.10066 -0.214132,-1.76388 0,-0.8367 -0.162001,-1.20587 -0.529166,-1.20587 -0.291042,0 -0.529167,-0.15875 -0.529167,-0.35278 0,-0.19403 0.3175,-0.35278 0.705556,-0.35278 0.388055,0 0.705555,0.15875 0.705555,0.35278 0,0.20159 1.058333,0.35278 2.469444,0.35278 2.569764,0 2.68771,0.0855 2.132269,1.54646 -0.297402,0.78223 -0.578298,0.90191 -2.38125,1.01459 l -2.044074,0.12776 2.40207,0.0667 c 3.068628,0.0852 2.829774,0.77226 -0.26848,0.77226 -1.712131,0 -2.28455,-0.13045 -2.448625,-0.55802 z"
       id="path47"
       inkscape:connector-curvature="0" />
  </g>
</svg>
